<?xml version="1.0" encoding="UTF-8"?>
<svg id="Livello_1" xmlns="http://www.w3.org/2000/svg" version="1.1" xmlns:xlink="http://www.w3.org/1999/xlink" viewBox="0 0 600 600">
  <!-- Generator: Adobe Illustrator 30.0.0, SVG Export Plug-In . SVG Version: 2.1.1 Build 123)  -->
  <defs>
    <style>
      .st0 {
        fill: #131b2e;
      }

      .st1 {
        fill: #6a313b;
      }

      .st2 {
        fill: #81343b;
      }

      .st3 {
        fill: #76333b;
      }

      .st4 {
        fill: url(#Sfumatura_senza_nome_45);
      }

      .st5 {
        fill: #ec8867;
      }

      .st6 {
        fill: #f09572;
      }

      .st7 {
        fill: url(#Sfumatura_senza_nome_46);
      }

      .st8 {
        fill: #6d333c;
      }
    </style>
    <linearGradient id="Sfumatura_senza_nome_45" data-name="Sfumatura senza nome 45" x1="447.02" y1="542.15" x2="618.92" y2="762.83" gradientTransform="translate(-200 -350)" gradientUnits="userSpaceOnUse">
      <stop offset="0" stop-color="#ee8f6b"/>
      <stop offset="1" stop-color="#cf5044"/>
    </linearGradient>
    <linearGradient id="Sfumatura_senza_nome_46" data-name="Sfumatura senza nome 46" x1="459.48" y1="561.34" x2="655.69" y2="799.34" gradientTransform="translate(-200 -350)" gradientUnits="userSpaceOnUse">
      <stop offset="0" stop-color="#b3514a"/>
      <stop offset=".54" stop-color="#bd4a43"/>
      <stop offset="1" stop-color="#90353a"/>
    </linearGradient>
  </defs>
  <rect class="st0" x="11.04" y="11.04" width="577.91" height="577.91" rx="69.43" ry="69.43"/>
  <g>
    <path class="st4" d="M382.18,108.49c-54.61,77.58,31.13,146.43,39.34,218.25,11.65,101.84-61.97,182.01-166.04,161.09-11.49-2.31-42.31-19.09-45.23-19.19-2.21-.07-30.53,14.34-40.9,12.48-14.62-16.34-24.36-31.49-32.18-51.99,4.42-21.44,1.61-42.53,4.95-64.36,12.87-84,93.91-143.89,178.24-113.87,30.6,20.36,46.28,68.9,39.61,103.97-22.2,34.13-58.01,58.69-99.02,39.61-14.58-16.42-19.9-31.64-.03-47.03,4.77,42.24,40.92,22.74,39.64-14.85-1.29-37.72-35.84-40.28-64.36-27.23-54,24.7-51.36,113.58-2.48,143.58,38.05,23.35,82.64,15.41,113.87-14.85,99.52-96.43-38.04-165.64-29-257.99,5.95-60.8,71.88-119.33,132.94-110.89"/>
    <path class="st7" d="M451.54,65.2c-33.93,21.11-50.82,58.14-51.9,78.1-4.6,85.23,91.46,134.55,71.49,262.08-20.92,133.58-213.74,174.13-301.77,75.74,10.37,1.86,38.68-12.56,40.9-12.48,2.92.1,33.74,16.88,45.23,19.19,104.07,20.92,177.69-59.25,166.04-161.09-8.22-71.82-93.96-140.66-39.34-218.25,14.72-20.91,55.89-34.35,69.36-43.29Z"/>
    <path class="st2" d="M236.2,305.36l7.43,9.9c-36.77,22.72-34.11,92,0,118.82l-9.9,14.85c-48.89-30-51.53-118.88,2.48-143.58Z"/>
    <path class="st6" d="M320.36,250.9c-84.33-30.02-165.37,29.87-178.24,113.87l-12.35,9.89-2.51-12.36c8.92-83.17,115.92-162.74,193.09-111.4Z"/>
    <path class="st3" d="M347.59,434.08c-31.23,30.26-75.82,38.2-113.87,14.85l9.9-14.85c32.91,25.88,69.2,16.88,103.97,0Z"/>
    <path class="st1" d="M260.95,394.48c41.01,19.08,76.82-5.48,99.02-39.61-8.3,43.63-65.66,77.17-99.02,39.61Z"/>
    <path class="st8" d="M300.56,332.59c-6.28-23.99-37.21-29.51-56.94-17.33l-7.43-9.9c28.52-13.05,63.08-10.49,64.36,27.23Z"/>
    <path class="st5" d="M127.27,362.3l2.51,12.36,12.35-9.89c-3.34,21.83-.53,42.93-4.95,64.36-9.77-25.6-13.01-37.8-9.9-66.84Z"/>
  </g>
</svg>