<?xml version="1.0" encoding="UTF-8"?>
<svg xmlns="http://www.w3.org/2000/svg" version="1.1" viewBox="0 0 631.74 266.72">
  <g>
    <path class="arrow" d="M549.48,95.2c7.17,5.81-1.14,16.77-8.63,11.39-3.05-2.19-5.73-4.29-7.64-5.86-79.32-64.91-179.9-73.39-261.68-8.21-26.17,20.85-5.65,15.47,14.59,23.92,19.86,8.3,42.59,22.09,54.17,40.62,47.69,76.33-89,105.55-112.63,27.08-6.77-22.47-4.03-41.24,2.33-62.02,1.42-4.62-2.1-9.35-6.93-9.22-58.93,1.58-109.34,35.46-138.48,86.3-3.25,5.67-4.57,12.17-7.64,17.88-1.75,3.24.18,5.68-5.79,4.5,7.51-43.6,41.5-86.18,80.94-105.15,28.81-13.86,54.15-13.54,85.04-13.17,2.24.03,4.34-1.03,5.75-2.77,17.2-21.33,40.42-30.23,64.64-43.66,91.35-50.68,199.21,3.69,241.97,38.37ZM254.67,116.13c-2.5-.44-5.04.51-6.66,2.46-21.41,25.74-14.83,75.87,13.31,94.33,20.38,13.37,49.26,15.56,66.45-4.05,35.55-40.55-35.75-86.2-73.09-92.73Z"/>
    <path class="arrow" d="M533.66,58.19c2.08-.22,4.07.95,4.88,2.88l21.51,51.4c6.07,24.65-40.54,9.49-56.83,6.63-1.7-.3-3.08-1.5-3.64-3.13h0c-1.01-2.94,1.04-6.03,4.14-6.27,8.62-.67,25.16,1.95,35.27,3.46,3.59.54,6.43-2.99,5.12-6.38-4.67-12.15-14.17-33.63-14.87-43.48-.18-2.57,1.67-4.82,4.23-5.1l.19-.02Z"/>
  </g>
</svg>